<svg id="Layer_1" height="39" viewBox="0 0 128 128" width="39" xmlns="http://www.w3.org/2000/svg" data-name="Layer 1"><path fill="#64c2ec"  d="m100.354 29.475c-1.253-6.405-7.881-11.5-9.818-12.864a8.571 8.571 0 0 0 -2.927-3.928 17.3 17.3 0 0 0 -28.576 13.13c0 10.87 8.794 15.545 15.215 18.958 2 1.061 3.761 2.027 5.244 3a74.371 74.371 0 0 0 -12.133-1.328 46.963 46.963 0 0 0 -23.132-4.981 1.751 1.751 0 0 0 -1.087 3.038 21.7 21.7 0 0 1 3.612 4.8 51.4 51.4 0 0 0 -18.738 10.81 1.751 1.751 0 0 0 1.037 3.042 25.855 25.855 0 0 1 16.983 9.859c4.094 5.473 10.929 9.061 18.329 10.206l-5.8 13.335a1.749 1.749 0 0 0 1.604 2.448h9.75v18.75a1.75 1.75 0 0 0 1.75 1.75h3.833a1.75 1.75 0 0 0 0-3.5h-2.083v-17h10.449l2.071 1.726a1.75 1.75 0 1 0 2.24-2.688l-2.557-2.132a1.749 1.749 0 0 0 -1.12-.406h-11.083v-12.124a30.269 30.269 0 0 0 6.708-1.589c10.685-3.892 16.406-13.308 15.7-25.734 0-12.361-9.463-17.393-16.375-21.068-6.633-3.525-9.334-5.342-9.334-9.171a6.213 6.213 0 0 1 3.895-5.769 8.538 8.538 0 0 0 7.908 7.979l14.146 10.193a1.75 1.75 0 0 0 2.46-.42 10.56 10.56 0 0 0 1.829-8.322zm-31.125 21.944c5.073 2.984 5.215 8.322 3.2 12.02-1.991 3.654-6.271 6.2-11.348 3.644a16.222 16.222 0 0 1 -8.411-11.608 25.4 25.4 0 0 0 -4.562-10.542 45.861 45.861 0 0 1 21.121 6.486zm.688 44.081h-7.08l5.187-11.925c.489.022.979.038 1.47.038.141 0 .283-.007.424-.009zm7.583-75.977a4.975 4.975 0 0 1 .162-1.24 1.747 1.747 0 0 0 -.342-1.538 1.726 1.726 0 0 0 -1.438-.641 9.713 9.713 0 0 0 -9.261 9.708c0 6.314 4.938 8.939 11.193 12.263 6.8 3.618 14.516 7.718 14.519 18.075.842 14.889-8.035 20.392-13.4 22.347-10.578 3.855-24.078.453-30.09-7.583a28.928 28.928 0 0 0 -15.71-10.531 48.08 48.08 0 0 1 15.116-7.894 20.01 20.01 0 0 1 .978 3.582 19.787 19.787 0 0 0 10.28 14.137 12.527 12.527 0 0 0 5.658 1.429 12 12 0 0 0 10.335-6.523 12.209 12.209 0 0 0 -1.9-14.717 60.9 60.9 0 0 1 11.1 2.278 1.75 1.75 0 0 0 2.1-2.505c-1.974-3.538-5.772-5.75-10.924-8.489-6.261-3.328-13.357-7.1-13.357-15.868a13.8 13.8 0 0 1 22.851-10.439q.056.048.114.091a4.982 4.982 0 0 1 2.07 4.059 5.03 5.03 0 1 1 -10.06 0zm19.023 14.709-9.978-7.19a8.557 8.557 0 0 0 4.314-5.718c2.318 2.013 5.36 5.244 6.06 8.823a6.879 6.879 0 0 1 -.396 4.085z"/></svg>

